<?xml version="1.0" standalone="no"?>
<!DOCTYPE svg PUBLIC "-//W3C//DTD SVG 20010904//EN"
 "http://www.w3.org/TR/2001/REC-SVG-20010904/DTD/svg10.dtd">
<svg version="1.0" xmlns="http://www.w3.org/2000/svg"
 width="228.000000pt" height="221.000000pt" viewBox="0 0 228.000000 221.000000"
 preserveAspectRatio="xMidYMid meet">

<g transform="translate(0.000000,221.000000) scale(0.100000,-0.100000)"
fill="#000000" stroke="none">
<path d="M950 2186 c-242 -43 -445 -151 -612 -324 -311 -322 -386 -810 -186
-1206 56 -112 118 -198 209 -289 311 -309 782 -398 1195 -226 256 107 479 334
581 593 55 141 67 210 67 391 1 156 -2 178 -27 270 -31 113 -107 277 -161 347
l-37 48 22 42 c12 24 17 39 12 33 -6 -5 -54 -95 -108 -200 -54 -104 -183 -354
-288 -555 -104 -201 -236 -455 -293 -565 -57 -110 -108 -206 -113 -213 -6 -11
-26 -3 -87 35 -80 50 -483 307 -649 413 -155 99 -338 216 -383 244 -24 15 -42
29 -40 31 2 2 225 -70 496 -161 271 -90 498 -164 505 -164 7 0 18 10 26 23 8
12 31 42 51 67 35 43 189 238 345 435 583 738 597 755 608 748 6 -3 7 -1 3 5
-4 7 -2 12 3 12 6 0 11 5 11 10 0 23 -19 5 -90 -84 l-74 -94 -76 66 c-147 128
-321 218 -500 257 -103 22 -315 28 -410 11z m354 -41 c147 -26 282 -79 405
-160 77 -51 191 -150 191 -166 0 -6 -57 -82 -127 -171 -222 -280 -443 -559
-583 -736 -74 -95 -137 -172 -140 -172 -3 0 -221 72 -485 159 l-480 160 -3 63
c-4 78 13 201 40 293 151 502 665 820 1182 730z"/>
<path d="M2065 1979 c-4 -6 -5 -12 -2 -15 2 -3 7 2 10 11 7 17 1 20 -8 4z"/>
</g>
</svg>
